<?xml version="1.0" standalone="no"?>
<!DOCTYPE svg PUBLIC "-//W3C//DTD SVG 20010904//EN"
 "http://www.w3.org/TR/2001/REC-SVG-20010904/DTD/svg10.dtd">
<svg version="1.0" xmlns="http://www.w3.org/2000/svg"
 width="1080.000000pt" height="1080.000000pt" viewBox="0 0 1080.000000 1080.000000"
 preserveAspectRatio="xMidYMid meet">
<metadata>
Created by potrace 1.14, written by Peter Selinger 2001-2017
</metadata>
<g transform="translate(0.000000,1080.000000) scale(0.100000,-0.100000)"
fill="#000000" stroke="none">
<path d="M5090 7858 c-285 -24 -640 -135 -843 -262 -45 -29 -130 -69 -187 -91
-258 -96 -572 -279 -780 -453 -125 -104 -330 -318 -403 -420 -146 -203 -188
-299 -208 -475 -19 -171 10 -437 82 -755 17 -74 29 -135 27 -137 -2 -1 -32
-17 -68 -35 -131 -65 -266 -183 -350 -305 -51 -74 -108 -204 -132 -301 -30
-124 -30 -304 0 -428 24 -96 81 -227 132 -301 159 -231 415 -376 706 -401 l81
-6 79 -125 c173 -273 358 -499 633 -773 469 -467 999 -819 1485 -986 410 -142
729 -146 1052 -14 691 282 1251 1265 1404 2465 43 340 48 628 14 887 -15 111
-15 120 5 210 11 52 23 138 27 192 7 91 9 98 36 121 16 14 34 25 39 25 6 0 8
48 7 118 l-3 117 -111 16 c-108 15 -113 17 -168 62 -32 26 -85 63 -118 84 -48
30 -71 53 -113 118 -74 112 -181 245 -278 344 l-82 84 88 -6 c79 -5 90 -4 107
13 23 23 24 34 9 155 -29 239 -131 430 -333 622 -234 224 -558 377 -959 454
-101 19 -112 24 -140 56 -99 113 -376 162 -737 131z m-2 -1139 c214 -23 459
-86 685 -175 76 -31 148 -54 160 -52 12 2 28 15 36 30 14 25 14 31 -6 77 -19
46 -20 51 -5 51 31 0 123 -49 248 -131 131 -86 149 -90 179 -45 13 19 13 32 4
75 -6 29 -8 55 -5 58 18 18 163 -67 326 -190 103 -79 302 -271 369 -357 l43
-55 -97 -12 c-181 -22 -292 -74 -473 -221 l-24 -18 26 -31 27 -31 -57 -8 c-63
-7 -301 -1 -311 9 -3 4 1 15 9 24 31 37 28 41 -54 104 -94 70 -212 130 -308
156 -90 24 -310 24 -400 0 -93 -24 -234 -97 -315 -162 -72 -58 -77 -60 -160
-70 -55 -7 -1077 -172 -1111 -180 -20 -4 -22 0 -27 78 -4 63 -15 109 -48 197
-39 106 -42 123 -43 215 -1 94 1 105 31 166 36 73 132 183 199 230 34 23 57
31 106 34 88 6 174 35 359 120 164 77 236 102 324 115 77 11 205 11 313 -1z
m753 -1053 c109 -25 181 -57 222 -96 20 -21 37 -45 37 -54 0 -15 -7 -13 -42 9
-142 88 -249 120 -403 120 -108 -1 -129 -4 -208 -32 -149 -53 -327 -173 -327
-222 0 -26 34 -61 59 -61 10 0 47 21 82 47 64 47 208 127 216 120 2 -2 -1 -16
-7 -31 -24 -63 -2 -137 55 -192 92 -89 230 -75 303 30 23 34 27 49 27 113 0
44 4 73 10 73 14 0 166 -89 201 -118 l28 -23 -22 -77 c-63 -218 -179 -354
-354 -413 -77 -26 -233 -28 -323 -4 -147 39 -249 145 -290 300 -18 70 -20 240
-4 317 12 54 44 127 57 129 4 1 17 3 30 4 13 1 33 11 45 22 59 54 110 63 347
58 125 -2 219 -9 261 -19z m1509 -16 c11 -21 20 -41 20 -44 0 -2 -28 5 -62 17
-50 16 -89 21 -188 21 -111 0 -134 -3 -205 -27 -44 -16 -111 -46 -149 -68 -38
-21 -71 -37 -73 -35 -10 9 20 48 58 76 83 60 258 97 461 99 l118 1 20 -40z
m325 -114 c10 -25 16 -49 14 -55 -2 -6 -14 16 -26 49 -12 33 -18 58 -13 55 5
-3 16 -25 25 -49z m-274 -83 c44 -23 49 -31 74 -102 34 -94 83 -286 91 -356
l6 -51 -49 -32 c-67 -43 -124 -62 -216 -71 -296 -28 -503 124 -588 435 l-21
78 33 29 c36 30 167 107 184 107 6 0 10 -31 10 -73 0 -83 21 -125 81 -166 157
-108 368 56 299 232 -7 15 -4 16 21 7 16 -6 50 -23 75 -37z m-2489 7 c22 -17
26 -29 32 -116 24 -345 146 -535 381 -598 94 -25 273 -31 380 -13 175 31 327
134 430 292 46 70 123 224 156 313 30 79 60 112 104 112 50 0 71 -26 120 -144
138 -334 289 -501 511 -560 141 -38 378 -29 499 19 32 14 61 22 65 19 12 -13
2 -466 -14 -609 -61 -542 -203 -1034 -419 -1460 -287 -563 -657 -897 -1076
-970 -255 -45 -562 20 -928 195 -567 272 -1145 758 -1563 1315 -88 118 -223
324 -263 400 -32 64 -47 69 -196 76 -106 5 -154 13 -216 33 -186 59 -329 185
-411 361 -156 335 -12 734 321 895 106 51 205 72 325 68 l94 -3 128 -305 c71
-168 153 -365 184 -438 35 -82 64 -137 76 -143 26 -14 65 -4 77 20 9 16 76
626 112 1021 6 69 13 127 16 130 4 4 960 106 1024 109 15 0 37 -8 51 -19z"/>
<path d="M6325 4895 c-14 -13 -25 -36 -25 -51 0 -15 29 -80 65 -145 162 -290
254 -524 262 -664 7 -102 -10 -127 -93 -146 -55 -12 -60 -12 -271 18 -69 10
-110 -81 -60 -131 44 -44 294 -68 397 -38 199 58 242 261 124 579 -70 188
-268 574 -304 593 -32 17 -70 11 -95 -15z"/>
<path d="M2892 4654 c-28 -19 -52 -65 -52 -98 0 -28 85 -349 100 -376 25 -47
121 -67 168 -34 28 19 52 65 52 98 0 28 -85 349 -100 376 -25 47 -121 67 -168
34z"/>
<path d="M5436 3267 c-33 -33 -34 -80 -3 -110 41 -42 428 -112 672 -123 223
-10 435 22 587 89 82 37 103 93 52 143 -30 31 -49 29 -176 -16 -226 -80 -516
-78 -913 6 -191 40 -190 40 -219 11z"/>
</g>
</svg>
